<svg xmlns="http://www.w3.org/2000/svg" fill="none" viewBox="0 0 24 24" xmlns:xlink="http://www.w3.org/1999/xlink" xml:space="preserve" width="100%" height="100%"><path fill="#141414" d="m16.243 10.759-.749.042a.75.75 0 0 0 .694.706l.055-.748zm-8.486 0 .055.748a.75.75 0 0 0 .694-.706l-.75-.042zM8 16.5A2.5 2.5 0 0 1 5.5 14H4a4 4 0 0 0 4 4v-1.5zm8 0H8V18h8v-1.5zm2.5-2.5a2.5 2.5 0 0 1-2.5 2.5V18a4 4 0 0 0 4-4h-1.5zm-2.312-2.493A2.5 2.5 0 0 1 18.5 14H20a4 4 0 0 0-3.701-3.989l-.111 1.496zM12 7.5a3.5 3.5 0 0 1 3.494 3.3l1.498-.083A5 5 0 0 0 12 6v1.5zm-3.494 3.3A3.5 3.5 0 0 1 12 7.5V6a5 5 0 0 0-4.992 4.717l1.498.084zM5.5 14a2.5 2.5 0 0 1 2.312-2.493l-.11-1.496A4 4 0 0 0 4 14h1.5z"></path></svg>